<svg width="344" height="343" xmlns="http://www.w3.org/2000/svg" xmlns:xlink="http://www.w3.org/1999/xlink" xml:space="preserve" overflow="hidden"><defs><clipPath id="clip0"><rect x="1512" y="1485" width="344" height="343"/></clipPath><clipPath id="clip1"><rect x="1619" y="1500" width="133" height="133"/></clipPath><clipPath id="clip2"><rect x="1619" y="1500" width="133" height="133"/></clipPath><clipPath id="clip3"><rect x="1619" y="1500" width="133" height="133"/></clipPath><clipPath id="clip4"><rect x="1597" y="1619" width="177" height="177"/></clipPath><clipPath id="clip5"><rect x="1597" y="1619" width="177" height="177"/></clipPath><clipPath id="clip6"><rect x="1597" y="1619" width="177" height="177"/></clipPath></defs><g clip-path="url(#clip0)" transform="translate(-1512 -1485)"><path d="M1516 1656C1516 1562.66 1591.66 1487 1685 1487L1685 1487C1778.34 1487 1854 1562.66 1854 1656 1854 1749.34 1778.34 1825 1685 1825 1591.66 1825 1516 1749.34 1516 1656Z" fill="#ED1931" fill-rule="evenodd" fill-opacity="1"/><g clip-path="url(#clip1)"><g clip-path="url(#clip2)"><g clip-path="url(#clip3)"><path d="M1656.13 1592.81C1656.13 1598.13 1651.82 1602.44 1646.5 1602.44 1641.18 1602.44 1636.88 1598.13 1636.88 1592.81 1636.88 1587.5 1641.18 1583.19 1646.5 1583.19 1651.82 1583.19 1656.13 1587.5 1656.13 1592.81Z" fill="#FFFFFF" fill-rule="nonzero" fill-opacity="1"/><path d="M1735.88 1592.81C1735.88 1598.13 1731.57 1602.44 1726.25 1602.44 1720.93 1602.44 1716.63 1598.13 1716.63 1592.81 1716.63 1587.5 1720.93 1583.19 1726.25 1583.19 1731.57 1583.19 1735.88 1587.5 1735.88 1592.81Z" fill="#FFFFFF" fill-rule="nonzero" fill-opacity="1"/><path d="M1712.5 1562.56 1712.5 1548.81 1720.75 1548.81C1723.23 1548.81 1725.43 1550.46 1725.98 1552.8L1728.73 1562.29C1728.73 1562.43 1728.86 1562.43 1728.86 1562.56L1712.5 1562.56ZM1743.3 1569.16 1736.01 1563.66C1735.05 1562.98 1734.36 1561.88 1734.09 1560.78L1731.34 1551.29C1729.96 1546.61 1725.7 1543.31 1720.75 1543.31L1707 1543.31 1707 1562.56 1707 1570.81 1707 1592.81 1712.5 1592.81C1712.5 1585.25 1718.69 1579.06 1726.25 1579.06 1733.81 1579.06 1740 1585.25 1740 1592.81 1743.03 1592.81 1745.5 1590.34 1745.5 1587.31L1745.5 1573.56C1745.5 1571.78 1744.68 1570.26 1743.3 1569.16Z" fill="#FFFFFF" fill-rule="nonzero" fill-opacity="1"/><path d="M1624.5 1592.81 1632.75 1592.81C1632.75 1585.25 1638.94 1579.06 1646.5 1579.06 1654.06 1579.06 1660.25 1585.25 1660.25 1592.81L1701.5 1592.81 1701.5 1573.56 1624.5 1573.56 1624.5 1592.81Z" fill="#FFFFFF" fill-rule="nonzero" fill-opacity="1"/><path d="M1712.5 1537.81 1712.5 1529.56 1690.5 1529.56 1685 1535.06 1636.88 1535.06 1624.5 1535.06 1624.5 1555.69 1636.88 1568.06 1701.5 1568.06 1701.5 1543.31 1707 1537.81Z" fill="#FFFFFF" fill-rule="nonzero" fill-opacity="1"/></g></g></g><g clip-path="url(#clip4)"><g clip-path="url(#clip5)"><g clip-path="url(#clip6)"><path d="M1685 1641 1685 1641 1608 1714.33 1616.25 1721.3 1685 1656.03 1753.75 1721.3 1762 1714.33Z" fill="#F6F6F4" fill-rule="nonzero" fill-opacity="1"/><path d="M1630 1718.55 1630 1773 1674 1773 1674 1727.17 1696 1727.17 1696 1773 1740 1773 1740 1718.55 1685 1666.3 1630 1718.55Z" fill="#F6F6F4" fill-rule="nonzero" fill-opacity="1"/></g></g></g></g></svg>