<svg width="340" height="344" xmlns="http://www.w3.org/2000/svg" xmlns:xlink="http://www.w3.org/1999/xlink" xml:space="preserve" overflow="hidden"><defs><clipPath id="clip0"><rect x="572" y="1338" width="340" height="344"/></clipPath><clipPath id="clip1"><rect x="676" y="1358" width="132" height="130"/></clipPath><clipPath id="clip2"><rect x="676" y="1358" width="132" height="130"/></clipPath><clipPath id="clip3"><rect x="676" y="1358" width="132" height="130"/></clipPath><clipPath id="clip4"><rect x="654" y="1466" width="177" height="177"/></clipPath><clipPath id="clip5"><rect x="654" y="1466" width="177" height="177"/></clipPath><clipPath id="clip6"><rect x="654" y="1466" width="177" height="177"/></clipPath></defs><g clip-path="url(#clip0)" transform="translate(-572 -1338)"><path d="M574 1511C574 1417.66 649.664 1342 743 1342L743 1342C836.336 1342 912 1417.66 912 1511 912 1604.34 836.336 1680 743 1680 649.664 1680 574 1604.34 574 1511Z" fill="#ED1931" fill-rule="evenodd" fill-opacity="1"/><g clip-path="url(#clip1)"><g clip-path="url(#clip2)"><g clip-path="url(#clip3)"><path d="M46.1783 88.9937C46.1783 93.692 41.4894 97.5007 35.7054 97.5007 29.9213 97.5007 25.2324 93.692 25.2324 88.9937 25.2324 84.2954 29.9213 80.4867 35.7054 80.4867 41.4894 80.4867 46.1783 84.2954 46.1783 88.9937Z" fill="#FFFFFF" fill-rule="nonzero" fill-opacity="1" transform="matrix(0.746013 -0.667177 0.672351 0.740272 626.386 1404.63)"/><path d="M112.945 88.9937C112.945 93.692 108.256 97.5007 102.472 97.5007 96.6882 97.5007 91.9993 93.692 91.9993 88.9937 91.9993 84.2954 96.6882 80.4867 102.472 80.4867 108.256 80.4867 112.945 84.2954 112.945 88.9937Z" fill="#FFFFFF" fill-rule="nonzero" fill-opacity="1" transform="matrix(0.746013 -0.667177 0.672351 0.740272 643.63 1449.17)"/><path d="M27.1827 32.25 25.2235 41.6562 10.2689 41.6562 9.42909 45.6875 24.3837 45.6875 23.2643 51.0625 12.9564 51.0625 12.1166 55.0937 22.4245 55.0937 21.3051 60.4687 4.89393 60.4687 4.05409 64.4999 20.4653 64.4999 31.7689 64.4999 82.9711 64.4999 89.6899 32.25 27.1827 32.25Z" fill="#FFFFFF" fill-rule="nonzero" fill-opacity="1" transform="matrix(1.00776 0 0 1 677 1358)"/><path d="M123.597 65.5749 117.595 60.2C116.794 59.478 116.325 58.4568 116.301 57.3781L115.545 48.1062C115.202 43.59 111.354 40.1501 106.828 40.3125L93.3905 40.3125 89.4655 59.125 87.7858 67.1874 83.3124 88.6874 88.6874 88.6874C90.2274 81.2968 97.5333 75.2499 104.924 75.2499 112.315 75.2499 117.097 81.2968 115.562 88.6874 118.686 88.5505 121.338 86.3552 122.057 83.3124L124.857 69.8749C125.243 68.3192 124.761 66.6761 123.597 65.5749ZM94.8405 59.125 97.6395 45.6875 105.702 45.6875C107.923 45.5379 109.845 47.2176 109.995 49.4389 109.998 49.4873 110 49.5358 110.002 49.5843L110.759 58.8562C110.73 58.9906 110.865 58.9906 110.836 59.125Z" fill="#FFFFFF" fill-rule="nonzero" fill-opacity="1" transform="matrix(1.00776 0 0 1 677 1358)"/><path d="M15.4262 88.6874 22.145 88.6874C23.6849 81.2968 30.9909 75.2499 38.3815 75.2499 45.7721 75.2499 50.5599 81.2968 49.02 88.6874L77.9374 88.6874 81.8572 69.8749 19.35 69.8749Z" fill="#FFFFFF" fill-rule="nonzero" fill-opacity="1" transform="matrix(1.00776 0 0 1 677 1358)"/></g></g></g><g clip-path="url(#clip4)"><g clip-path="url(#clip5)"><g clip-path="url(#clip6)"><path d="M743 1488 743 1488 666 1561.33 674.25 1568.3 743 1503.03 811.75 1568.3 820 1561.33Z" fill="#F6F6F4" fill-rule="nonzero" fill-opacity="1"/><path d="M688 1565.55 688 1620 732 1620 732 1574.17 754 1574.17 754 1620 798 1620 798 1565.55 743 1513.3 688 1565.55Z" fill="#F6F6F4" fill-rule="nonzero" fill-opacity="1"/></g></g></g></g></svg>