<svg width="340" height="339" xmlns="http://www.w3.org/2000/svg" xmlns:xlink="http://www.w3.org/1999/xlink" xml:space="preserve" overflow="hidden"><defs><clipPath id="clip0"><rect x="2795" y="1228" width="340" height="339"/></clipPath><clipPath id="clip1"><rect x="2900" y="1375" width="131" height="130"/></clipPath><clipPath id="clip2"><rect x="2900" y="1375" width="131" height="130"/></clipPath><clipPath id="clip3"><rect x="2900" y="1375" width="131" height="130"/></clipPath><clipPath id="clip4"><rect x="2960" y="1259" width="108" height="109"/></clipPath><clipPath id="clip5"><rect x="2960" y="1259" width="108" height="109"/></clipPath><clipPath id="clip6"><rect x="2960" y="1259" width="108" height="109"/></clipPath></defs><g clip-path="url(#clip0)" transform="translate(-2795 -1228)"><path d="M2797 1397.5C2797 1304.44 2872.44 1229 2965.5 1229L2966.5 1229C3059.56 1229 3135 1304.44 3135 1397.5L3135 1397.5C3135 1490.56 3059.56 1566 2966.5 1566L2965.5 1566C2872.44 1566 2797 1490.56 2797 1397.5Z" fill="#ED1931" fill-rule="evenodd" fill-opacity="1"/><g clip-path="url(#clip1)"><g clip-path="url(#clip2)"><g clip-path="url(#clip3)"><path d="M2901 1504.83 2941.33 1375.17 2989.99 1375.17 3030.99 1504.83 2901 1504.83ZM2976.22 1494.61 2955.78 1494.61 2957.44 1469.95 2974.55 1469.95 2976.22 1494.61ZM2974 1453.83 2958 1453.83 2958.55 1429.16 2973.45 1429.16 2974 1453.83ZM2972.89 1412.89 2959.1 1412.89 2959.65 1388.22 2971.78 1388.22 2972.89 1412.89Z" fill="#FFFFFF" fill-rule="evenodd" fill-opacity="1"/></g></g></g><g clip-path="url(#clip4)"><g clip-path="url(#clip5)"><g clip-path="url(#clip6)"><path d="M2996 1328.75C2996 1333.72 2991.97 1337.75 2987 1337.75 2982.03 1337.75 2978 1333.72 2978 1328.75 2978 1323.78 2982.03 1319.75 2987 1319.75 2991.97 1319.75 2996 1323.78 2996 1328.75Z" fill="#FFFFFF" fill-rule="nonzero" fill-opacity="1"/><path d="M3050 1328.75C3050 1333.72 3045.97 1337.75 3041 1337.75 3036.03 1337.75 3032 1333.72 3032 1328.75 3032 1323.78 3036.03 1319.75 3041 1319.75 3045.97 1319.75 3050 1323.78 3050 1328.75Z" fill="#FFFFFF" fill-rule="nonzero" fill-opacity="1"/><path d="M3003.88 1306.25 3003.88 1292.75 3019.29 1292.75C3020.52 1292.75 3021.65 1293.2 3022.44 1294.1L3034.59 1306.25 3003.88 1306.25ZM2999.38 1306.25 2970.91 1306.25 2983.06 1294.1C2983.96 1293.2 2985.09 1292.75 2986.21 1292.75L2999.38 1292.75 2999.38 1306.25ZM3052.25 1306.25 3042.91 1306.25C3041.68 1306.25 3040.55 1305.8 3039.76 1304.9L3025.59 1290.84C3023.9 1289.15 3021.65 1288.25 3019.18 1288.25L2986.21 1288.25C2983.85 1288.25 2981.49 1289.15 2979.8 1290.84L2965.85 1304.9C2964.95 1305.8 2964.5 1306.93 2964.5 1308.16L2964.5 1319.75C2964.5 1324.7 2968.55 1328.75 2973.5 1328.75L2974.62 1328.75C2974.62 1321.89 2980.14 1316.38 2987 1316.38 2993.86 1316.38 2999.38 1321.89 2999.38 1328.75L3028.62 1328.75C3028.62 1321.89 3034.14 1316.38 3041 1316.38 3047.86 1316.38 3053.38 1321.89 3053.38 1328.75L3059 1328.75C3061.47 1328.75 3063.5 1326.73 3063.5 1324.25L3063.5 1317.5C3063.5 1311.31 3058.44 1306.25 3052.25 1306.25Z" fill="#FFFFFF" fill-rule="nonzero" fill-opacity="1"/></g></g></g><path d="M2863.5 1329.5 2948.66 1329.5" stroke="#FFFFFF" stroke-width="4.58333" stroke-linecap="butt" stroke-linejoin="miter" stroke-miterlimit="8" stroke-opacity="1" fill="none" fill-rule="evenodd"/><path d="M2901.5 1312.5 2948.7 1312.5" stroke="#FFFFFF" stroke-width="4.58333" stroke-linecap="butt" stroke-linejoin="miter" stroke-miterlimit="8" stroke-opacity="1" fill="none" fill-rule="evenodd"/><path d="M2925.5 1291.5 2949.1 1291.5" stroke="#FFFFFF" stroke-width="4.58333" stroke-linecap="butt" stroke-linejoin="miter" stroke-miterlimit="8" stroke-opacity="1" fill="none" fill-rule="evenodd"/></g></svg>