<svg width="339" height="344" xmlns="http://www.w3.org/2000/svg" xmlns:xlink="http://www.w3.org/1999/xlink" xml:space="preserve" overflow="hidden"><defs><clipPath id="clip0"><rect x="861" y="728" width="339" height="344"/></clipPath><clipPath id="clip1"><rect x="963" y="744" width="133" height="133"/></clipPath><clipPath id="clip2"><rect x="963" y="744" width="133" height="133"/></clipPath><clipPath id="clip3"><rect x="963" y="744" width="133" height="133"/></clipPath><clipPath id="clip4"><rect x="965" y="878" width="130" height="130"/></clipPath><clipPath id="clip5"><rect x="965" y="878" width="130" height="130"/></clipPath><clipPath id="clip6"><rect x="965" y="878" width="130" height="130"/></clipPath></defs><g clip-path="url(#clip0)" transform="translate(-861 -728)"><path d="M862 900.5C862 807.44 937.44 732 1030.5 732L1030.5 732C1123.56 732 1199 807.44 1199 900.5L1199 901.5C1199 994.56 1123.56 1070 1030.5 1070 937.44 1070 862 994.56 862 901.5Z" fill="#ED1931" fill-rule="evenodd" fill-opacity="1"/><g clip-path="url(#clip1)"><g clip-path="url(#clip2)"><g clip-path="url(#clip3)"><path d="M1001.12 837.812C1001.12 843.128 996.816 847.437 991.5 847.437 986.184 847.437 981.875 843.128 981.875 837.812 981.875 832.497 986.184 828.187 991.5 828.187 996.816 828.187 1001.12 832.497 1001.12 837.812Z" fill="#FFFFFF" fill-rule="nonzero" fill-opacity="1"/><path d="M1080.87 837.812C1080.87 843.128 1076.57 847.437 1071.25 847.437 1065.93 847.437 1061.62 843.128 1061.62 837.812 1061.62 832.497 1065.93 828.187 1071.25 828.187 1076.57 828.187 1080.87 832.497 1080.87 837.812Z" fill="#FFFFFF" fill-rule="nonzero" fill-opacity="1"/><path d="M1057.5 807.562 1057.5 793.812 1065.75 793.812C1068.22 793.812 1070.42 795.462 1070.97 797.8L1073.72 807.287C1073.72 807.425 1073.86 807.425 1073.86 807.562L1057.5 807.562ZM1088.3 814.162 1081.01 808.662C1080.05 807.975 1079.36 806.875 1079.09 805.775L1076.34 796.287C1074.96 791.612 1070.7 788.312 1065.75 788.312L1052 788.312 1052 807.562 1052 815.812 1052 837.812 1057.5 837.812C1057.5 830.25 1063.69 824.062 1071.25 824.062 1078.81 824.062 1085 830.25 1085 837.812 1088.02 837.812 1090.5 835.337 1090.5 832.312L1090.5 818.562C1090.5 816.775 1089.67 815.262 1088.3 814.162Z" fill="#FFFFFF" fill-rule="nonzero" fill-opacity="1"/><path d="M969.5 837.812 977.75 837.812C977.75 830.25 983.937 824.062 991.5 824.062 999.062 824.062 1005.25 830.25 1005.25 837.812L1046.5 837.812 1046.5 818.562 969.5 818.562 969.5 837.812Z" fill="#FFFFFF" fill-rule="nonzero" fill-opacity="1"/><path d="M1057.5 782.812 1057.5 774.562 1035.5 774.562 1030 780.062 981.875 780.062 969.5 780.062 969.5 800.687 981.875 813.062 1046.5 813.062 1046.5 788.312 1052 782.812Z" fill="#FFFFFF" fill-rule="nonzero" fill-opacity="1"/></g></g></g><g clip-path="url(#clip4)"><g clip-path="url(#clip5)"><g clip-path="url(#clip6)"><path d="M966 1007.83 1006.02 879.168 1054.31 879.168 1094.99 1007.83 966 1007.83ZM1040.64 997.691 1020.36 997.691 1022.01 973.22 1038.98 973.22 1040.64 997.691ZM1038.44 957.221 1022.56 957.221 1023.11 932.739 1037.89 932.739 1038.44 957.221ZM1037.33 916.593 1023.66 916.593 1024.2 892.122 1036.23 892.122 1037.33 916.593Z" fill="#FFFFFF" fill-rule="evenodd" fill-opacity="1"/></g></g></g></g></svg>