<svg width="344" height="344" xmlns="http://www.w3.org/2000/svg" xmlns:xlink="http://www.w3.org/1999/xlink" xml:space="preserve" overflow="hidden"><defs><clipPath id="clip0"><rect x="1837" y="132" width="344" height="344"/></clipPath><clipPath id="clip1"><rect x="1944" y="149" width="133" height="133"/></clipPath><clipPath id="clip2"><rect x="1944" y="149" width="133" height="133"/></clipPath><clipPath id="clip3"><rect x="1944" y="149" width="133" height="133"/></clipPath><clipPath id="clip4"><rect x="1945" y="282" width="130" height="131"/></clipPath><clipPath id="clip5"><rect x="1945" y="282" width="130" height="131"/></clipPath><clipPath id="clip6"><rect x="1945" y="282" width="130" height="131"/></clipPath></defs><g clip-path="url(#clip0)" transform="translate(-1837 -132)"><path d="M1842 303.5C1842 210.44 1917.44 135 2010.5 135L2010.5 135C2103.56 135 2179 210.44 2179 303.5L2179 304.5C2179 397.56 2103.56 473 2010.5 473 1917.44 473 1842 397.56 1842 304.5Z" fill="#ED1931" fill-rule="evenodd" fill-opacity="1"/><g clip-path="url(#clip1)"><g clip-path="url(#clip2)"><g clip-path="url(#clip3)"><path d="M2013.76 191.387 2013.76 196.887C2012.8 196.887 2011.97 196.75 2011.01 196.75 2010.09 196.727 2009.17 196.773 2008.26 196.887L2008.26 191.387C2003.08 191.641 1997.98 192.709 1993.13 194.55L1995.2 199.5C1993.41 200.187 1991.76 200.875 1990.11 201.7L1988.05 196.612C1985.49 197.864 1983.05 199.337 1980.76 201.012L1974.85 195.1C1985.26 187.234 1997.96 182.986 2011.01 183 2044.42 183 2071.51 210.087 2071.51 243.5L2071.51 249 2063.26 249 2063.26 243.5C2063.24 237.988 2062.36 232.513 2060.65 227.275L2055.56 229.337C2055.01 227.55 2054.32 225.9 2053.63 224.25L2058.72 222.187C2056.64 217.527 2053.86 213.214 2050.47 209.4L2046.62 213.25C2045.41 211.854 2044.12 210.523 2042.77 209.262L2046.62 205.412C2042.84 201.897 2038.58 198.935 2033.97 196.612L2031.91 201.7C2030.26 200.875 2028.61 200.187 2026.82 199.5L2028.88 194.412C2024.03 192.617 2018.93 191.596 2013.76 191.387Z" fill="#FFFFFF" fill-rule="nonzero" fill-opacity="1"/><path d="M1961.37 208.85 1967.28 214.762C1965.77 217.085 1964.44 219.522 1963.3 222.05L1968.38 224.25C1967.7 225.9 1967.01 227.687 1966.46 229.337L1961.37 227.275C1959.66 232.513 1958.78 237.988 1958.76 243.5L1958.76 249 1950.51 249 1950.51 243.5C1950.48 231.108 1954.27 219.008 1961.37 208.85Z" fill="#FFFFFF" fill-rule="nonzero" fill-opacity="1"/><path d="M2014.86 241.025C2015.13 241.162 2015.27 241.437 2015.55 241.712 2017.53 244.061 2017.23 247.571 2014.88 249.552 2012.53 251.532 2009.02 251.234 2007.04 248.885 2007.03 248.877 2007.03 248.87 2007.02 248.862L1964.26 198.125Z" fill="#FFFFFF" fill-rule="nonzero" fill-opacity="1"/></g></g></g><g clip-path="url(#clip4)"><g clip-path="url(#clip5)"><g clip-path="url(#clip6)"><path d="M0 128.664 40.0185 0 88.3095 0 128.989 128.664 0 128.664ZM74.6411 118.523 54.3588 118.523 56.007 94.0519 72.9824 94.0519 74.6411 118.523ZM72.4365 78.0529 56.5634 78.0529 57.1093 53.5715 71.8906 53.5715 72.4365 78.0529ZM71.3342 37.4255 57.6552 37.4255 58.2011 12.9546 70.2319 12.9546 71.3342 37.4255Z" fill="#FFFFFF" fill-rule="evenodd" fill-opacity="1" transform="matrix(1 0 0 1.00775 1946 283.169)"/></g></g></g></g></svg>