<svg width="344" height="339" xmlns="http://www.w3.org/2000/svg" xmlns:xlink="http://www.w3.org/1999/xlink" xml:space="preserve" overflow="hidden"><defs><clipPath id="clip0"><rect x="1755" y="838" width="344" height="339"/></clipPath><clipPath id="clip1"><rect x="1819" y="871" width="109" height="108"/></clipPath><clipPath id="clip2"><rect x="1819" y="871" width="109" height="108"/></clipPath><clipPath id="clip3"><rect x="1819" y="871" width="109" height="108"/></clipPath><clipPath id="clip4"><rect x="1862" y="985" width="129" height="132"/></clipPath><clipPath id="clip5"><rect x="1862" y="985" width="129" height="132"/></clipPath><clipPath id="clip6"><rect x="1862" y="985" width="129" height="132"/></clipPath><clipPath id="clip7"><rect x="1933" y="870" width="109" height="108"/></clipPath><clipPath id="clip8"><rect x="1933" y="870" width="109" height="108"/></clipPath><clipPath id="clip9"><rect x="1933" y="870" width="109" height="108"/></clipPath></defs><g clip-path="url(#clip0)" transform="translate(-1755 -838)"><path d="M1758 1008.5C1758 915.44 1833.44 840 1926.5 840L1926.5 840C2019.56 840 2095 915.44 2095 1008.5 2095 1101.56 2019.56 1177 1926.5 1177 1833.44 1177 1758 1101.56 1758 1008.5Z" fill="#ED1931" fill-rule="evenodd" fill-opacity="1"/><g clip-path="url(#clip1)"><g clip-path="url(#clip2)"><g clip-path="url(#clip3)"><path d="M1855 940.75C1855 945.721 1850.97 949.75 1846 949.75 1841.03 949.75 1837 945.721 1837 940.75 1837 935.779 1841.03 931.75 1846 931.75 1850.97 931.75 1855 935.779 1855 940.75Z" fill="#FFFFFF" fill-rule="nonzero" fill-opacity="1"/><path d="M1909 940.75C1909 945.721 1904.97 949.75 1900 949.75 1895.03 949.75 1891 945.721 1891 940.75 1891 935.779 1895.03 931.75 1900 931.75 1904.97 931.75 1909 935.779 1909 940.75Z" fill="#FFFFFF" fill-rule="nonzero" fill-opacity="1"/><path d="M1862.88 918.25 1862.88 904.75 1878.29 904.75C1879.53 904.75 1880.65 905.2 1881.44 906.1L1893.59 918.25 1862.88 918.25ZM1858.38 918.25 1829.91 918.25 1842.06 906.1C1842.96 905.2 1844.09 904.75 1845.21 904.75L1858.38 904.75 1858.38 918.25ZM1911.25 918.25 1901.91 918.25C1900.68 918.25 1899.55 917.8 1898.76 916.9L1884.59 902.838C1882.9 901.15 1880.65 900.25 1878.18 900.25L1845.21 900.25C1842.85 900.25 1840.49 901.15 1838.8 902.838L1824.85 916.9C1823.95 917.8 1823.5 918.925 1823.5 920.163L1823.5 931.75C1823.5 936.7 1827.55 940.75 1832.5 940.75L1833.63 940.75C1833.63 933.888 1839.14 928.375 1846 928.375 1852.86 928.375 1858.38 933.888 1858.38 940.75L1887.63 940.75C1887.63 933.888 1893.14 928.375 1900 928.375 1906.86 928.375 1912.38 933.888 1912.38 940.75L1918 940.75C1920.48 940.75 1922.5 938.725 1922.5 936.25L1922.5 929.5C1922.5 923.312 1917.44 918.25 1911.25 918.25Z" fill="#FFFFFF" fill-rule="nonzero" fill-opacity="1"/></g></g></g><g clip-path="url(#clip4)"><g clip-path="url(#clip5)"><g clip-path="url(#clip6)"><path d="M0 128.664 40.0185 0 88.3095 0 128.989 128.664 0 128.664ZM74.6411 118.523 54.3588 118.523 56.007 94.0519 72.9824 94.0519 74.6411 118.523ZM72.4365 78.0529 56.5634 78.0529 57.1093 53.5715 71.8906 53.5715 72.4365 78.0529ZM71.3342 37.4255 57.6552 37.4255 58.2011 12.9546 70.2319 12.9546 71.3342 37.4255Z" fill="#FFFFFF" fill-rule="evenodd" fill-opacity="1" transform="matrix(1 0 0 1.00776 1862 986.169)"/></g></g></g><g clip-path="url(#clip7)"><g clip-path="url(#clip8)"><g clip-path="url(#clip9)"><path d="M1970 939.75C1970 944.721 1965.97 948.75 1961 948.75 1956.03 948.75 1952 944.721 1952 939.75 1952 934.779 1956.03 930.75 1961 930.75 1965.97 930.75 1970 934.779 1970 939.75Z" fill="#FFFFFF" fill-rule="nonzero" fill-opacity="1"/><path d="M2024 939.75C2024 944.721 2019.97 948.75 2015 948.75 2010.03 948.75 2006 944.721 2006 939.75 2006 934.779 2010.03 930.75 2015 930.75 2019.97 930.75 2024 934.779 2024 939.75Z" fill="#FFFFFF" fill-rule="nonzero" fill-opacity="1"/><path d="M1977.87 917.25 1977.87 903.75 1993.29 903.75C1994.52 903.75 1995.65 904.2 1996.44 905.1L2008.59 917.25 1977.87 917.25ZM1973.37 917.25 1944.91 917.25 1957.06 905.1C1957.96 904.2 1959.09 903.75 1960.21 903.75L1973.37 903.75 1973.37 917.25ZM2026.25 917.25 2016.91 917.25C2015.67 917.25 2014.55 916.8 2013.76 915.9L1999.59 901.838C1997.9 900.15 1995.65 899.25 1993.17 899.25L1960.21 899.25C1957.85 899.25 1955.49 900.15 1953.8 901.838L1939.85 915.9C1938.95 916.8 1938.5 917.925 1938.5 919.163L1938.5 930.75C1938.5 935.7 1942.55 939.75 1947.5 939.75L1948.62 939.75C1948.62 932.888 1954.14 927.375 1961 927.375 1967.86 927.375 1973.37 932.888 1973.37 939.75L2002.62 939.75C2002.62 932.888 2008.14 927.375 2015 927.375 2021.86 927.375 2027.37 932.888 2027.37 939.75L2033 939.75C2035.47 939.75 2037.5 937.725 2037.5 935.25L2037.5 928.5C2037.5 922.312 2032.44 917.25 2026.25 917.25Z" fill="#FFFFFF" fill-rule="nonzero" fill-opacity="1"/></g></g></g></g></svg>