<svg width="339" height="353" xmlns="http://www.w3.org/2000/svg" xmlns:xlink="http://www.w3.org/1999/xlink" xml:space="preserve" overflow="hidden"><defs><clipPath id="clip0"><rect x="197" y="73" width="339" height="353"/></clipPath><clipPath id="clip1"><rect x="245" y="181" width="245" height="245"/></clipPath><clipPath id="clip2"><rect x="245" y="181" width="245" height="245"/></clipPath><clipPath id="clip3"><rect x="245" y="181" width="245" height="245"/></clipPath><clipPath id="clip4"><rect x="301" y="110" width="133" height="132"/></clipPath><clipPath id="clip5"><rect x="301" y="110" width="133" height="132"/></clipPath><clipPath id="clip6"><rect x="301" y="110" width="133" height="132"/></clipPath></defs><g clip-path="url(#clip0)" transform="translate(-197 -73)"><path d="M198 244C198 150.664 273.664 74.9999 367 74.9999L367 74.9999C460.336 74.9999 536 150.664 536 244 536 337.336 460.336 413 367 413 273.664 413 198 337.336 198 244Z" fill="#ED1931" fill-rule="evenodd" fill-opacity="1"/><g clip-path="url(#clip1)"><g clip-path="url(#clip2)"><g clip-path="url(#clip3)"><path d="M295.833 307.304 295.833 337.042C295.833 351.021 327.604 365 367 365 406.396 365 438.167 351.021 438.167 337.042L438.167 307.304 367 332.467 295.833 307.304Z" fill="#FFFFFF" fill-rule="nonzero" fill-opacity="1"/><path d="M367 321.537 477.817 282.65 367 243 256.183 282.65 270.417 287.733 270.417 334.5C270.417 337.296 272.704 339.583 275.5 339.583 278.296 339.583 280.583 337.296 280.583 334.5L280.583 291.292 367 321.537Z" fill="#FFFFFF" fill-rule="nonzero" fill-opacity="1"/></g></g></g><g clip-path="url(#clip4)"><g clip-path="url(#clip5)"><g clip-path="url(#clip6)"><path d="M369.758 151.387 369.758 156.887C368.796 156.887 367.971 156.75 367.008 156.75 366.09 156.727 365.17 156.773 364.258 156.887L364.258 151.387C359.082 151.641 353.978 152.709 349.133 154.55L351.196 159.5C349.408 160.188 347.758 160.875 346.108 161.7L344.046 156.613C341.493 157.864 339.055 159.337 336.758 161.012L330.846 155.1C341.26 147.234 353.958 142.986 367.008 143 400.422 143 427.508 170.087 427.508 203.5L427.508 209 419.258 209 419.258 203.5C419.24 197.988 418.359 192.514 416.646 187.275L411.558 189.337C411.008 187.55 410.321 185.9 409.633 184.25L414.721 182.188C412.643 177.527 409.861 173.214 406.471 169.4L402.621 173.25C401.408 171.854 400.123 170.523 398.771 169.262L402.621 165.413C398.84 161.898 394.581 158.935 389.971 156.613L387.908 161.7C386.258 160.875 384.608 160.188 382.821 159.5L384.883 154.413C380.032 152.617 374.928 151.596 369.758 151.387Z" fill="#FFFFFF" fill-rule="nonzero" fill-opacity="1"/><path d="M317.371 168.85 323.283 174.762C321.769 177.085 320.435 179.522 319.296 182.05L324.383 184.25C323.696 185.9 323.008 187.688 322.458 189.337L317.371 187.275C315.658 192.514 314.776 197.988 314.758 203.5L314.758 209 306.508 209 306.508 203.5C306.48 191.108 310.273 179.008 317.371 168.85Z" fill="#FFFFFF" fill-rule="nonzero" fill-opacity="1"/><path d="M370.858 201.025C371.133 201.163 371.271 201.438 371.546 201.712 373.527 204.061 373.228 207.571 370.879 209.552 368.53 211.532 365.021 211.234 363.04 208.885 363.034 208.878 363.027 208.87 363.021 208.863L320.258 158.125Z" fill="#FFFFFF" fill-rule="nonzero" fill-opacity="1"/></g></g></g></g></svg>