<svg width="339" height="353" xmlns="http://www.w3.org/2000/svg" xmlns:xlink="http://www.w3.org/1999/xlink" xml:space="preserve" overflow="hidden"><defs><clipPath id="clip0"><rect x="1003" y="73" width="339" height="353"/></clipPath><clipPath id="clip1"><rect x="1051" y="181" width="244" height="245"/></clipPath><clipPath id="clip2"><rect x="1051" y="181" width="244" height="245"/></clipPath><clipPath id="clip3"><rect x="1051" y="181" width="244" height="245"/></clipPath><clipPath id="clip4"><rect x="1106" y="113" width="133" height="133"/></clipPath><clipPath id="clip5"><rect x="1106" y="113" width="133" height="133"/></clipPath><clipPath id="clip6"><rect x="1106" y="113" width="133" height="133"/></clipPath></defs><g clip-path="url(#clip0)" transform="translate(-1003 -73)"><path d="M1005 243.5C1005 150.44 1080.44 74.9999 1173.5 74.9999L1173.5 74.9999C1266.56 74.9999 1342 150.44 1342 243.5L1342 244.5C1342 337.56 1266.56 413 1173.5 413 1080.44 413 1005 337.56 1005 244.5Z" fill="#ED1931" fill-rule="evenodd" fill-opacity="1"/><g clip-path="url(#clip1)"><g clip-path="url(#clip2)"><g clip-path="url(#clip3)"><path d="M50.625 124.791 50.625 154.406C50.625 168.328 82.2656 182.25 121.5 182.25 160.734 182.25 192.375 168.328 192.375 154.406L192.375 124.791 121.5 149.85 50.625 124.791Z" fill="#FFFFFF" fill-rule="nonzero" fill-opacity="1" transform="matrix(1 0 0 1.00412 1052 182)"/><path d="M121.5 138.966 231.863 100.238 121.5 60.75 11.1375 100.238 25.3125 105.3 25.3125 151.875C25.3125 154.659 27.5906 156.938 30.375 156.938 33.1594 156.938 35.4375 154.659 35.4375 151.875L35.4375 108.844 121.5 138.966Z" fill="#FFFFFF" fill-rule="nonzero" fill-opacity="1" transform="matrix(1 0 0 1.00412 1052 182)"/></g></g></g><g clip-path="url(#clip4)"><g clip-path="url(#clip5)"><g clip-path="url(#clip6)"><path d="M1144.12 205.813C1144.12 211.128 1139.82 215.438 1134.5 215.438 1129.18 215.438 1124.87 211.128 1124.87 205.813 1124.87 200.497 1129.18 196.188 1134.5 196.188 1139.82 196.188 1144.12 200.497 1144.12 205.813Z" fill="#FFFFFF" fill-rule="nonzero" fill-opacity="1"/><path d="M1223.87 205.813C1223.87 211.128 1219.57 215.438 1214.25 215.438 1208.93 215.438 1204.62 211.128 1204.62 205.813 1204.62 200.497 1208.93 196.188 1214.25 196.188 1219.57 196.188 1223.87 200.497 1223.87 205.813Z" fill="#FFFFFF" fill-rule="nonzero" fill-opacity="1"/><path d="M1200.5 175.563 1200.5 161.813 1208.75 161.813C1211.22 161.813 1213.42 163.463 1213.97 165.8L1216.72 175.288C1216.72 175.425 1216.86 175.425 1216.86 175.563L1200.5 175.563ZM1231.3 182.163 1224.01 176.663C1223.05 175.975 1222.36 174.875 1222.09 173.775L1219.34 164.288C1217.96 159.613 1213.7 156.313 1208.75 156.313L1195 156.313 1195 175.563 1195 183.813 1195 205.813 1200.5 205.813C1200.5 198.25 1206.69 192.063 1214.25 192.063 1221.81 192.063 1228 198.25 1228 205.813 1231.02 205.813 1233.5 203.338 1233.5 200.313L1233.5 186.563C1233.5 184.775 1232.67 183.263 1231.3 182.163Z" fill="#FFFFFF" fill-rule="nonzero" fill-opacity="1"/><path d="M1112.5 205.813 1120.75 205.813C1120.75 198.25 1126.94 192.063 1134.5 192.063 1142.06 192.063 1148.25 198.25 1148.25 205.813L1189.5 205.813 1189.5 186.563 1112.5 186.563 1112.5 205.813Z" fill="#FFFFFF" fill-rule="nonzero" fill-opacity="1"/><path d="M1200.5 150.813 1200.5 142.563 1178.5 142.563 1173 148.063 1124.87 148.063 1112.5 148.063 1112.5 168.688 1124.87 181.063 1189.5 181.063 1189.5 156.313 1195 150.813Z" fill="#FFFFFF" fill-rule="nonzero" fill-opacity="1"/></g></g></g></g></svg>